<svg width="57" height="52" viewBox="0 0 30 19" fill="none" xmlns="http://www.w3.org/2000/svg">
<path d="M6.14162 4.01689C11.034 -0.672295 18.9661 -0.672295 23.8584 4.01689L24.4472 4.58124C24.6918 4.8157 24.6918 5.19583 24.4472 5.43029L22.433 7.36082C22.3107 7.47805 22.1124 7.47805 21.9901 7.36082L21.1799 6.58421C17.7668 3.31292 12.2332 3.31292 8.82018 6.58421L7.95245 7.41589C7.83015 7.53312 7.63184 7.53312 7.50953 7.41589L5.49536 5.48536C5.25074 5.2509 5.25074 4.87077 5.49536 4.63631L6.14162 4.01689ZM28.0239 8.00943L29.8165 9.72761C30.0612 9.96207 30.0612 10.3422 29.8165 10.5767L21.7335 18.3242C21.4889 18.5586 21.0923 18.5586 20.8476 18.3242C20.8476 18.3242 20.8476 18.3242 20.8476 18.3242L15.1108 12.8255C15.0496 12.7669 14.9505 12.7669 14.8893 12.8255C14.8893 12.8255 14.8893 12.8255 14.8893 12.8255L9.15259 18.3242C8.90797 18.5586 8.51137 18.5586 8.26675 18.3242C8.26674 18.3242 8.26674 18.3242 8.26674 18.3242L0.183463 10.5766C-0.0611544 10.3421 -0.0611544 9.96197 0.183463 9.72751L1.97609 8.00933C2.22071 7.77487 2.61731 7.77487 2.86193 8.00933L8.59887 13.508C8.66002 13.5666 8.75918 13.5666 8.82033 13.508C8.82033 13.508 8.82033 13.508 8.82033 13.508L14.557 8.00933C14.8016 7.77486 15.1982 7.77486 15.4428 8.00931C15.4428 8.00931 15.4428 8.00932 15.4428 8.00932L21.1798 13.508C21.2409 13.5666 21.3401 13.5666 21.4012 13.508L27.1381 8.00943C27.3827 7.77497 27.7793 7.77497 28.0239 8.00943Z" fill="#3B99FC"/>
</svg>
