<svg width="81" height="65" viewBox="0 0 81 65" fill="none" xmlns="http://www.w3.org/2000/svg">
  <path d="M24.6876 15.6783C31.7463 5.2261 35.2756 1.75974e-07 40.2715 0C45.2674 -1.75974e-07 48.7967 5.22609 55.8553 15.6783L69.357 35.6712C78.0677 48.5697 82.4231 55.019 79.7714 60.0095C77.1196 65 69.3375 65 53.7732 65H26.7698C11.2055 65 3.42334 65 0.771631 60.0095C-1.88008 55.019 2.47525 48.5697 11.1859 35.6712L24.6876 15.6783Z" fill="#FFB800"/>
  <path d="M40.1788 19.8689C42.5162 19.8689 44.3837 21.8143 44.2882 24.1497L43.6739 39.1855C43.5973 41.0602 42.0552 42.5407 40.1788 42.5407C38.3025 42.5407 36.7604 41.0602 36.6838 39.1855L36.0694 24.1497C35.974 21.8143 37.8415 19.8689 40.1788 19.8689ZM40.2946 54.6575C38.9051 54.6575 37.7626 54.2473 36.8672 53.4269C36.0026 52.5749 35.5703 51.5336 35.5703 50.303C35.5703 49.0408 36.0026 47.9838 36.8672 47.1318C37.7626 46.2798 38.9051 45.8538 40.2946 45.8538C41.6533 45.8538 42.7649 46.2798 43.6294 47.1318C44.5249 47.9838 44.9726 49.0408 44.9726 50.303C44.9726 51.5336 44.5249 52.5749 43.6294 53.4269C42.7649 54.2473 41.6533 54.6575 40.2946 54.6575Z" fill="white"/>
</svg>
