<?xml version="1.0" standalone="no"?>
<!DOCTYPE svg PUBLIC "-//W3C//DTD SVG 20010904//EN"
 "http://www.w3.org/TR/2001/REC-SVG-20010904/DTD/svg10.dtd">
<svg version="1.0" xmlns="http://www.w3.org/2000/svg"
 width="896.000000pt" height="896.000000pt" viewBox="0 0 896.000000 896.000000"
 preserveAspectRatio="xMidYMid meet">
<metadata>
Created by potrace 1.14, written by Peter Selinger 2001-2017
</metadata>
<g transform="translate(0.000000,896.000000) scale(0.100000,-0.100000)"
fill="#000000" stroke="none">
<path d="M4185 8267 c-132 -79 -634 -377 -1115 -662 -481 -285 -1110 -657
-1398 -828 l-522 -309 2 -1956 3 -1955 945 -560 c520 -307 1259 -746 1643
-973 l699 -414 1226 727 c675 399 1417 839 1650 976 l422 250 0 1951 -1 1951
-162 96 c-89 53 -677 401 -1307 774 -630 373 -1293 766 -1474 873 -181 108
-339 197 -350 199 -13 2 -112 -51 -261 -140z m-1564 -1989 c46 -13 109 -65
138 -112 30 -48 43 -126 30 -185 -32 -148 -172 -238 -309 -198 -66 19 -132 72
-162 131 -17 32 -22 59 -22 121 -1 69 3 86 26 126 62 106 182 153 299 117z
m1524 -7 c22 -10 50 -29 62 -42 21 -24 910 -1429 920 -1455 4 -12 -187 -14
-1230 -14 -856 0 -1252 3 -1287 11 -224 48 -271 359 -72 476 l47 28 700 5
c698 5 700 5 741 27 74 39 122 112 131 197 10 98 -38 195 -119 238 -41 22 -55
23 -338 28 -325 6 -341 9 -409 73 -129 123 -100 337 58 419 l53 28 352 0 c320
0 355 -2 391 -19z m2502 5 c-7 -18 -957 -1527 -971 -1543 -9 -10 -76 90 -281
415 -148 235 -269 436 -269 447 -1 25 344 587 388 633 58 62 42 60 615 61 439
1 522 -1 518 -13z m-478 -2799 c265 -417 481 -760 481 -762 0 -3 -237 -5 -527
-5 l-526 0 -42 24 c-23 14 -53 42 -67 63 -49 72 -368 591 -368 599 0 4 123
200 272 436 211 331 275 425 284 415 7 -6 229 -353 493 -770z m-3505 725 c83
-45 129 -126 129 -227 -1 -73 -22 -128 -71 -179 -51 -53 -104 -76 -178 -76
-114 0 -209 70 -241 179 -28 97 -2 203 64 262 49 44 63 52 111 65 61 17 125 9
186 -24z m2454 25 c20 -2 -29 -82 -423 -702 -244 -385 -459 -717 -476 -738
-16 -20 -48 -46 -69 -57 -38 -19 -61 -20 -781 -20 -534 0 -753 3 -780 12 -55
16 -118 73 -145 132 -61 131 -1 294 131 353 37 17 94 18 735 23 l695 5 38 23
c144 90 155 305 20 408 -62 47 -113 54 -401 54 -237 0 -261 2 -302 21 -92 41
-140 113 -148 219 -9 134 76 245 208 269 30 6 1637 4 1698 -2z"/>
</g>
</svg>
