<?xml version="1.0" standalone="no"?>
<!DOCTYPE svg PUBLIC "-//W3C//DTD SVG 20010904//EN"
 "http://www.w3.org/TR/2001/REC-SVG-20010904/DTD/svg10.dtd">
<svg version="1.0" xmlns="http://www.w3.org/2000/svg"
 width="640.000000pt" height="640.000000pt" viewBox="0 0 640.000000 640.000000"
 preserveAspectRatio="xMidYMid meet">
<metadata>
Created by potrace 1.14, written by Peter Selinger 2001-2017
</metadata>
<g transform="translate(0.000000,640.000000) scale(0.100000,-0.100000)"
fill="#000000" stroke="none">
<path d="M3165 6382 c-16 -9 -34 -22 -41 -27 -6 -6 -30 -19 -53 -29 -22 -11
-41 -23 -41 -28 0 -4 -5 -8 -10 -8 -6 0 -108 -57 -228 -127 -119 -69 -230
-134 -247 -143 -16 -10 -133 -77 -260 -150 -126 -74 -243 -141 -260 -149 -16
-9 -32 -19 -35 -22 -3 -4 -32 -21 -65 -39 -33 -17 -89 -49 -124 -71 -34 -21
-65 -39 -68 -39 -3 0 -25 -13 -50 -30 -24 -16 -46 -30 -48 -30 -3 0 -76 -41
-162 -91 -87 -51 -196 -114 -242 -140 -46 -27 -88 -49 -92 -49 -5 0 -9 -4 -9
-8 0 -4 -15 -15 -33 -23 -17 -9 -115 -64 -217 -124 -102 -59 -198 -115 -215
-123 -16 -9 -36 -22 -43 -29 -7 -7 -24 -16 -38 -19 -13 -3 -24 -10 -24 -15 0
-5 -4 -9 -10 -9 -5 0 -32 -13 -58 -30 l-49 -30 1 -1615 1 -1615 69 -40 c37
-22 70 -40 72 -40 3 0 34 -18 70 -40 36 -22 68 -40 69 -40 2 0 30 -15 62 -34
32 -18 78 -45 103 -58 46 -25 93 -53 152 -87 109 -62 165 -94 183 -103 11 -5
37 -19 57 -31 20 -12 54 -32 75 -43 21 -12 134 -76 252 -143 118 -66 218 -121
223 -121 4 0 8 -4 8 -8 0 -4 12 -13 27 -19 16 -7 51 -25 78 -41 65 -38 119
-69 175 -100 25 -14 103 -58 173 -98 71 -41 130 -74 132 -74 2 0 42 -23 90
-50 48 -28 91 -50 96 -50 5 0 9 -4 9 -10 0 -5 4 -10 10 -10 5 0 51 -24 102
-53 51 -30 113 -65 138 -79 84 -47 125 -70 170 -97 73 -42 124 -70 143 -77 9
-3 17 -11 17 -16 0 -6 11 -3 25 6 21 14 73 44 140 80 11 6 22 14 25 17 3 3 19
12 35 21 25 13 219 125 275 158 69 42 153 90 156 90 3 0 23 11 45 26 22 14 56
34 75 45 70 39 110 62 139 80 17 10 53 30 80 44 28 15 57 33 65 39 8 7 26 18
40 25 14 6 43 23 65 36 22 14 47 28 55 32 8 4 70 40 138 80 68 40 128 73 133
73 5 0 9 4 9 9 0 5 11 12 25 15 14 4 25 11 25 16 0 6 9 10 19 10 11 0 21 4 23
8 2 5 35 26 73 47 39 21 81 46 95 55 24 17 97 58 170 96 19 11 37 22 40 25 3
4 51 33 108 65 57 33 124 71 150 87 26 15 56 32 67 37 11 5 27 14 35 20 26 17
343 200 347 200 2 0 21 12 43 26 l40 27 0 1603 c0 1183 -3 1604 -11 1604 -6 0
-48 22 -93 49 -94 57 -647 377 -691 400 -16 9 -32 19 -35 22 -3 3 -28 19 -57
35 -61 34 -275 156 -318 181 -16 10 -31 21 -33 26 -2 4 -8 7 -14 7 -6 0 -44
20 -85 45 -40 25 -78 45 -83 45 -5 0 -15 6 -22 13 -7 7 -38 27 -68 44 -80 44
-136 76 -250 143 -8 5 -37 22 -65 38 -27 15 -119 69 -203 118 -84 49 -168 97
-185 107 -18 10 -95 55 -172 99 -77 45 -151 88 -165 97 -25 16 -31 19 -105 60
-22 12 -53 31 -70 41 -37 23 -34 23 -70 2z"/>
</g>
</svg>
